<svg width="156" height="164" viewBox="0 0 156 164" fill="none" xmlns="http://www.w3.org/2000/svg">
<path d="M153 82.0393C153 97.664 148.601 112.938 140.36 125.929C132.119 138.92 120.406 149.046 106.701 155.025C92.9968 161.004 77.9168 162.569 63.3683 159.521C48.8197 156.473 35.4559 148.949 24.9671 137.9C14.4782 126.852 7.33504 112.776 4.44114 97.4513C1.54726 82.127 3.03248 66.2428 8.70904 51.8076C14.3857 37.3723 23.9986 25.0344 36.3323 16.3538C48.666 7.6733 63.1664 3.04004 78.0001 3.04004C87.8491 3.04004 97.6019 5.08336 106.701 9.05345C115.801 13.0235 124.069 18.8427 131.033 26.1784C137.997 33.5142 143.522 42.2229 147.291 51.8076C151.06 61.3922 153 71.6651 153 82.0393Z" fill="black" stroke="#FFFF31" stroke-width="5" stroke-miterlimit="10"/>
<path d="M113.986 82.0394C113.986 125.664 97.8772 161.021 78 161.021C58.1229 161.021 42.0303 125.664 42.0303 82.0394C42.0303 38.4147 58.1394 3.04004 78 3.04004C97.8607 3.04004 113.986 38.4147 113.986 82.0394Z" stroke="#FFFF31" stroke-width="5" stroke-miterlimit="10"/>
<path d="M153 82.0394C153 102.006 119.416 118.211 78 118.211C36.5839 118.211 3.01654 102.006 3.01654 82.0394C3.01654 62.073 36.5839 45.8502 78 45.8502C119.416 45.8502 153 62.0556 153 82.0394Z" stroke="#FFFF31" stroke-width="5" stroke-miterlimit="10"/>
<path d="M78 3.04004V161.021" stroke="#FFFF31" stroke-width="5" stroke-miterlimit="10"/>
<path d="M3.00008 82.0396H152.983" stroke="#FFFF31" stroke-width="5" stroke-miterlimit="10"/>
</svg>
