<!-- lime -->
<svg class="svg earth" width="100" height="100" viewBox="0 0 100 100" fill="none" xmlns="http://www.w3.org/2000/svg">
<path d="M97 50C97 59.2957 94.2436 68.3827 89.0792 76.1118C83.9148 83.8409 76.5743 89.865 67.9862 93.4223C59.398 96.9797 49.9479 97.9104 40.8309 96.0969C31.7137 94.2834 23.3391 89.8071 16.7661 83.234C10.193 76.661 5.71663 68.2864 3.90311 59.1692C2.08961 50.0522 3.02035 40.6019 6.57767 32.0139C10.135 23.4257 16.1591 16.0853 23.8883 10.9209C31.6174 5.75652 40.7043 3 50.0001 3C56.1722 3 62.2839 4.21566 67.9862 6.57763C73.6885 8.9396 78.8697 12.4016 83.2341 16.766C87.5985 21.1304 91.0604 26.3115 93.4224 32.0139C95.7844 37.7162 97 43.8279 97 50Z" fill="black" stroke="#8DFFA8" stroke-width="5" stroke-miterlimit="10"/>
<path d="M72.5511 50C72.5511 75.9542 62.4561 96.9897 49.9998 96.9897C37.5434 96.9897 27.4587 75.9542 27.4587 50C27.4587 24.0459 37.5537 3 49.9998 3C62.4458 3 72.5511 24.0459 72.5511 50Z" stroke="#8DFFA8" stroke-width="5" stroke-miterlimit="10"/>
<path d="M97 50.0001C97 61.8789 75.9541 71.5202 50 71.5202C24.0458 71.5202 3.01025 61.8789 3.01025 50.0001C3.01025 38.1212 24.0458 28.4696 50 28.4696C75.9541 28.4696 97 38.1109 97 50.0001Z" stroke="#8DFFA8" stroke-width="5" stroke-miterlimit="10"/>
<path d="M50 3V96.9897" stroke="#8DFFA8" stroke-width="5" stroke-miterlimit="10"/>
<path d="M3 50.0002H96.9897" stroke="#8DFFA8" stroke-width="5" stroke-miterlimit="10"/>
</svg>

<!-- yellow -->
<svg class="svg earth" width="100" height="100" viewBox="0 0 100 100" fill="none" xmlns="http://www.w3.org/2000/svg">
<path d="M97 50C97 59.2957 94.2436 68.3827 89.0792 76.1118C83.9148 83.8409 76.5743 89.865 67.9862 93.4223C59.398 96.9797 49.9479 97.9104 40.8309 96.0969C31.7137 94.2834 23.3391 89.8071 16.7661 83.234C10.193 76.661 5.71663 68.2864 3.90311 59.1692C2.08961 50.0522 3.02035 40.6019 6.57767 32.0139C10.135 23.4257 16.1591 16.0853 23.8883 10.9209C31.6174 5.75652 40.7043 3 50.0001 3C56.1722 3 62.2839 4.21566 67.9862 6.57763C73.6885 8.9396 78.8697 12.4016 83.2341 16.766C87.5985 21.1304 91.0604 26.3115 93.4224 32.0139C95.7844 37.7162 97 43.8279 97 50Z" fill="black" stroke="#FFFF31" stroke-width="5" stroke-miterlimit="10"/>
<path d="M72.5511 50C72.5511 75.9542 62.4561 96.9897 49.9998 96.9897C37.5434 96.9897 27.4587 75.9542 27.4587 50C27.4587 24.0459 37.5537 3 49.9998 3C62.4458 3 72.5511 24.0459 72.5511 50Z" stroke="#FFFF31" stroke-width="5" stroke-miterlimit="10"/>
<path d="M97 50.0001C97 61.8789 75.9541 71.5202 50 71.5202C24.0458 71.5202 3.01025 61.8789 3.01025 50.0001C3.01025 38.1212 24.0458 28.4696 50 28.4696C75.9541 28.4696 97 38.1109 97 50.0001Z" stroke="#FFFF31" stroke-width="5" stroke-miterlimit="10"/>
<path d="M50 3V96.9897" stroke="#FFFF31" stroke-width="5" stroke-miterlimit="10"/>
<path d="M3 50.0002H96.9897" stroke="#FFFF31" stroke-width="5" stroke-miterlimit="10"/>
</svg>

