<svg width="40" height="40" viewBox="0 0 40 40" fill="none" xmlns="http://www.w3.org/2000/svg">
<path d="M20.5458 8.09372C13.6431 8.09372 8.04566 13.7855 8.04566 20.8072C8.04566 26.4245 11.6273 31.1901 16.594 32.8712C17.2187 32.9889 17.4481 32.5954 17.4481 32.2596C17.4481 31.9565 17.4365 30.955 17.4311 29.8926C13.9535 30.6617 13.2197 28.3926 13.2197 28.3926C12.6511 26.923 11.8318 26.5323 11.8318 26.5323C10.6977 25.7432 11.9173 25.7594 11.9173 25.7594C13.1726 25.8489 13.8335 27.0696 13.8335 27.0696C14.9484 29.0132 16.7577 28.4513 17.471 28.1264C17.5832 27.3049 17.9072 26.7437 18.2647 26.4264C15.4882 26.1049 12.5696 25.0147 12.5696 20.1432C12.5696 18.7552 13.0579 17.621 13.8575 16.7307C13.7277 16.4102 13.2999 15.1173 13.9786 13.3661C13.9786 13.3661 15.0283 13.0244 17.417 14.6693C18.4141 14.3876 19.4835 14.2464 20.5458 14.2415C21.6081 14.2464 22.6782 14.3876 23.6772 14.6693C26.063 13.0244 27.1113 13.3661 27.1113 13.3661C27.7917 15.1173 27.3636 16.4102 27.2338 16.7307C28.0353 17.621 28.5203 18.7552 28.5203 20.1432C28.5203 25.0263 25.5961 26.1015 22.8126 26.4163C23.2609 26.8108 23.6604 27.5845 23.6604 28.7707C23.6604 30.4716 23.646 31.8407 23.646 32.2596C23.646 32.598 23.871 32.9944 24.5046 32.8696C29.4686 31.1866 33.0457 26.4226 33.0457 20.8072C33.0457 13.7855 27.4491 8.09372 20.5458 8.09372" fill="white"/>
<path d="M12.7801 26.3476C12.7526 26.411 12.6549 26.4297 12.5658 26.3864C12.4752 26.3449 12.4243 26.2588 12.4537 26.1954C12.4806 26.1304 12.5785 26.1125 12.6689 26.1556C12.7598 26.1973 12.8115 26.2843 12.7801 26.3476" fill="white"/>
<path d="M13.2864 26.922C13.2268 26.9782 13.1102 26.9521 13.0312 26.8632C12.9494 26.7746 12.9341 26.6561 12.9945 26.599C13.056 26.5428 13.169 26.5691 13.251 26.6578C13.3328 26.7475 13.3487 26.8651 13.2864 26.922" fill="white"/>
<path d="M13.7793 27.6542C13.7027 27.7083 13.5774 27.6576 13.5 27.5445C13.4234 27.4315 13.4234 27.2959 13.5017 27.2416C13.5793 27.1872 13.7027 27.2361 13.7811 27.3483C13.8575 27.463 13.8575 27.5988 13.7793 27.6542" fill="white"/>
<path d="M14.4545 28.3616C14.386 28.4384 14.24 28.4178 14.1332 28.313C14.0239 28.2104 13.9935 28.065 14.0622 27.9881C14.1316 27.9111 14.2783 27.9327 14.386 28.0367C14.4944 28.1391 14.5275 28.2856 14.4545 28.3616" fill="white"/>
<path d="M15.386 28.7723C15.3557 28.8719 15.2152 28.9172 15.0736 28.8749C14.9322 28.8313 14.8397 28.7147 14.8683 28.614C14.8977 28.5138 15.0388 28.4666 15.1815 28.5119C15.3226 28.5553 15.4154 28.6711 15.386 28.7723" fill="white"/>
<path d="M16.4089 28.8486C16.4125 28.9534 16.2924 29.0404 16.1438 29.0421C15.9943 29.0456 15.8734 28.9608 15.8718 28.8576C15.8718 28.7517 15.9891 28.6656 16.1386 28.6631C16.2872 28.6602 16.4089 28.7444 16.4089 28.8486" fill="white"/>
<path d="M17.3609 28.6837C17.3787 28.786 17.2754 28.8911 17.1278 28.9189C16.9827 28.9461 16.8484 28.8829 16.83 28.7814C16.812 28.6766 16.9171 28.5715 17.062 28.5444C17.2098 28.5182 17.3421 28.5797 17.3609 28.6837" fill="white"/>
<rect x="0.5" y="0.5" width="39" height="39" rx="19.5" stroke="white"/>
</svg>
