<svg width="40" height="40" viewBox="0 0 40 40" fill="none" xmlns="http://www.w3.org/2000/svg">
<path d="M29.1636 12.3287C27.5701 11.5976 25.8614 11.059 24.0749 10.7504C24.0424 10.7445 24.0099 10.7594 23.9931 10.7891C23.7733 11.18 23.5299 11.6899 23.3595 12.0906C21.4379 11.803 19.5262 11.803 17.6441 12.0906C17.4736 11.681 17.2213 11.18 17.0006 10.7891C16.9838 10.7604 16.9513 10.7455 16.9188 10.7504C15.1332 11.058 13.4245 11.5966 11.8301 12.3287C11.8163 12.3347 11.8045 12.3446 11.7967 12.3575C8.55562 17.1996 7.66776 21.9226 8.10331 26.5871C8.10528 26.6099 8.11809 26.6317 8.13583 26.6456C10.2742 28.2159 12.3455 29.1693 14.3784 29.8012C14.411 29.8111 14.4454 29.7992 14.4661 29.7724C14.947 29.1157 15.3757 28.4233 15.7432 27.6951C15.7649 27.6525 15.7442 27.6019 15.6999 27.585C15.0199 27.3271 14.3725 27.0126 13.7497 26.6555C13.7005 26.6267 13.6965 26.5563 13.7418 26.5225C13.8729 26.4243 14.004 26.3222 14.1291 26.219C14.1518 26.2002 14.1833 26.1962 14.2099 26.2081C18.3013 28.0761 22.7308 28.0761 26.7739 26.2081C26.8005 26.1952 26.8321 26.1992 26.8557 26.218C26.9809 26.3212 27.1119 26.4243 27.244 26.5225C27.2893 26.5563 27.2863 26.6267 27.2371 26.6555C26.6143 27.0196 25.9669 27.3271 25.286 27.584C25.2416 27.6009 25.2219 27.6525 25.2436 27.6951C25.619 28.4223 26.0477 29.1147 26.5197 29.7714C26.5394 29.7992 26.5749 29.8111 26.6074 29.8012C28.6501 29.1693 30.7215 28.2159 32.8598 26.6456C32.8786 26.6317 32.8904 26.6109 32.8924 26.588C33.4136 21.1954 32.0193 16.5111 29.1961 12.3585C29.1892 12.3446 29.1774 12.3347 29.1636 12.3287ZM16.3542 23.7469C15.1224 23.7469 14.1074 22.616 14.1074 21.2272C14.1074 19.8383 15.1027 18.7074 16.3542 18.7074C17.6155 18.7074 18.6206 19.8483 18.6009 21.2272C18.6009 22.616 17.6056 23.7469 16.3542 23.7469ZM24.6612 23.7469C23.4294 23.7469 22.4145 22.616 22.4145 21.2272C22.4145 19.8383 23.4097 18.7074 24.6612 18.7074C25.9225 18.7074 26.9276 19.8483 26.908 21.2272C26.908 22.616 25.9225 23.7469 24.6612 23.7469Z" fill="white"/>
<rect x="0.5" y="0.5" width="39" height="39" rx="19.5" stroke="white"/>
</svg>
