<svg width="40" height="40" viewBox="0 0 40 40" fill="none" xmlns="http://www.w3.org/2000/svg">
<path d="M12.8492 16.6983C14.4227 16.6983 15.6983 15.4227 15.6983 13.8492C15.6983 12.2756 14.4227 11 12.8492 11C11.2756 11 10 12.2756 10 13.8492C10 15.4227 11.2756 16.6983 12.8492 16.6983Z" fill="white"/>
<path d="M20 16.6983C21.5736 16.6983 22.8492 15.4227 22.8492 13.8492C22.8492 12.2756 21.5736 11 20 11C18.4264 11 17.1508 12.2756 17.1508 13.8492C17.1508 15.4227 18.4264 16.6983 20 16.6983Z" fill="white"/>
<path d="M20 23.8492C21.5736 23.8492 22.8492 22.5735 22.8492 21C22.8492 19.4264 21.5736 18.1508 20 18.1508C18.4264 18.1508 17.1508 19.4264 17.1508 21C17.1508 22.5735 18.4264 23.8492 20 23.8492Z" fill="white"/>
<path d="M20 31C21.5736 31 22.8492 29.7244 22.8492 28.1509C22.8492 26.5773 21.5736 25.3017 20 25.3017C18.4264 25.3017 17.1508 26.5773 17.1508 28.1509C17.1508 29.7244 18.4264 31 20 31Z" fill="white"/>
<path d="M27.1508 16.6983C28.7244 16.6983 30 15.4227 30 13.8492C30 12.2756 28.7244 11 27.1508 11C25.5773 11 24.3017 12.2756 24.3017 13.8492C24.3017 15.4227 25.5773 16.6983 27.1508 16.6983Z" fill="white"/>
<rect x="0.5" y="0.5" width="39" height="39" rx="19.5" stroke="white"/>
</svg>
