<svg width="25" height="25" viewBox="0 0 25 25" fill="none" xmlns="http://www.w3.org/2000/svg">
<path d="M3.56146 7.12292C5.5284 7.12292 7.12292 5.5284 7.12292 3.56146C7.12292 1.59452 5.5284 0 3.56146 0C1.59452 0 0 1.59452 0 3.56146C0 5.5284 1.59452 7.12292 3.56146 7.12292Z" fill="white"/>
<path d="M12.5 7.12292C14.4669 7.12292 16.0615 5.5284 16.0615 3.56146C16.0615 1.59452 14.4669 0 12.5 0C10.5331 0 8.93854 1.59452 8.93854 3.56146C8.93854 5.5284 10.5331 7.12292 12.5 7.12292Z" fill="white"/>
<path d="M12.3115 15.8729C14.2784 15.8729 15.8729 14.2784 15.8729 12.3115C15.8729 10.3445 14.2784 8.75 12.3115 8.75C10.3445 8.75 8.75 10.3445 8.75 12.3115C8.75 14.2784 10.3445 15.8729 12.3115 15.8729Z" fill="white"/>
<path d="M12.5 25.0001C14.4669 25.0001 16.0615 23.4055 16.0615 21.4386C16.0615 19.4717 14.4669 17.8771 12.5 17.8771C10.5331 17.8771 8.93854 19.4717 8.93854 21.4386C8.93854 23.4055 10.5331 25.0001 12.5 25.0001Z" fill="white"/>
<path d="M21.4385 7.12292C23.4055 7.12292 25 5.5284 25 3.56146C25 1.59452 23.4055 0 21.4385 0C19.4716 0 17.8771 1.59452 17.8771 3.56146C17.8771 5.5284 19.4716 7.12292 21.4385 7.12292Z" fill="white"/>
</svg>
