<svg width="26" height="25" viewBox="0 0 26 25" fill="none" xmlns="http://www.w3.org/2000/svg">
<path d="M12.5458 0.0937195C5.64305 0.0937195 0.0456619 5.7855 0.0456619 12.8072C0.0456619 18.4245 3.62732 23.1901 8.594 24.8712C9.21871 24.9889 9.44806 24.5954 9.44806 24.2596C9.44806 23.9565 9.43647 22.955 9.43109 21.8926C5.95355 22.6617 5.21975 20.3926 5.21975 20.3926C4.65113 18.923 3.83183 18.5323 3.83183 18.5323C2.6977 17.7432 3.91732 17.7594 3.91732 17.7594C5.17255 17.8489 5.83349 19.0696 5.83349 19.0696C6.94837 21.0132 8.75773 20.4513 9.47104 20.1264C9.58323 19.3049 9.90718 18.7437 10.2647 18.4264C7.48822 18.1049 4.56957 17.0147 4.56957 12.1432C4.56957 10.7552 5.05787 9.62101 5.8575 8.73066C5.72772 8.41023 5.29985 7.11734 5.97859 5.36612C5.97859 5.36612 7.02827 5.02442 9.41701 6.66932C10.4141 6.38763 11.4835 6.24636 12.5458 6.24152C13.6081 6.24636 14.6782 6.38763 15.6772 6.66932C18.063 5.02442 19.1113 5.36612 19.1113 5.36612C19.7917 7.11734 19.3636 8.41023 19.2338 8.73066C20.0353 9.62101 20.5203 10.7552 20.5203 12.1432C20.5203 17.0263 17.5961 18.1015 14.8126 18.4163C15.2609 18.8108 15.6604 19.5845 15.6604 20.7707C15.6604 22.4716 15.646 23.8407 15.646 24.2596C15.646 24.598 15.871 24.9944 16.5046 24.8696C21.4686 23.1866 25.0457 18.4226 25.0457 12.8072C25.0457 5.7855 19.4491 0.0937195 12.5458 0.0937195Z" fill="white"/>
<path d="M4.78009 18.3476C4.75255 18.411 4.65485 18.4297 4.56584 18.3864C4.47518 18.3449 4.42426 18.2588 4.45365 18.1954C4.48056 18.1304 4.57847 18.1125 4.66893 18.1556C4.7598 18.1973 4.81155 18.2843 4.78009 18.3476Z" fill="white"/>
<path d="M5.2864 18.922C5.22679 18.9782 5.11025 18.9521 5.03118 18.8632C4.94941 18.7746 4.93409 18.6561 4.99454 18.599C5.05601 18.5428 5.16903 18.5691 5.25101 18.6578C5.33277 18.7475 5.34871 18.8651 5.2864 18.922Z" fill="white"/>
<path d="M5.77926 19.6542C5.70267 19.7083 5.57744 19.6576 5.50002 19.5445C5.42343 19.4315 5.42343 19.2959 5.50168 19.2416C5.5793 19.1872 5.70267 19.2361 5.78112 19.3483C5.85751 19.463 5.85751 19.5988 5.77926 19.6542Z" fill="white"/>
<path d="M6.45448 20.3616C6.38596 20.4384 6.24003 20.4178 6.13322 20.313C6.02393 20.2104 5.9935 20.065 6.06222 19.9881C6.13157 19.9111 6.27833 19.9327 6.38596 20.0367C6.49443 20.1391 6.52755 20.2856 6.45448 20.3616Z" fill="white"/>
<path d="M7.38597 20.7723C7.35575 20.8719 7.2152 20.9172 7.07361 20.8749C6.93223 20.8313 6.8397 20.7147 6.86827 20.614C6.89766 20.5138 7.03883 20.4666 7.18146 20.5119C7.32263 20.5553 7.41536 20.6711 7.38597 20.7723Z" fill="white"/>
<path d="M8.40894 20.8486C8.41246 20.9534 8.2924 21.0404 8.14377 21.0421C7.99432 21.0456 7.87344 20.9608 7.87178 20.8576C7.87178 20.7517 7.98915 20.6656 8.1386 20.6631C8.28722 20.6602 8.40894 20.7444 8.40894 20.8486Z" fill="white"/>
<path d="M9.36092 20.6837C9.37872 20.786 9.27543 20.8911 9.12784 20.9189C8.98274 20.9461 8.8484 20.8829 8.82997 20.7814C8.81196 20.6766 8.91712 20.5715 9.06202 20.5444C9.20981 20.5182 9.34208 20.5797 9.36092 20.6837Z" fill="white"/>
</svg>
